# xmcd
#
# Track frame offsets: 
#        150
#        19478
#        38463
#        59411
#        77867
#        99040
#        118093
#        140103
#        155104
#        176359
#        191912
#
# Disc length: 2770 seconds
#
# Revision: 0
# Processed by: cddbd v1.5.2PL0 Copyright (c) Steve Scherf et al.
# Submitted via: ExactAudioCopyFreeDBPlugin 1.0
#
DISCID=950ad00b
DTITLE=Various Artist - 'Tis the Season - Country Christmas
DYEAR=2013
DGENRE=Country
TTITLE0=The First Noel
TTITLE1=O Come All Ye Faithful
TTITLE2=Greensleeves
TTITLE3=Away In A Manger
TTITLE4=In Dulce Jubilo
TTITLE5=Bring A Torch, Jeanette, Isabella
TTITLE6=O Little Town of Bethlehem
TTITLE7=Jesu, Joy of Man's Desiring
TTITLE8=Silent Night
TTITLE9=O Tannenbaum
TTITLE10=Coventry Carol
EXTD=
EXTT0=
EXTT1=
EXTT2=
EXTT3=
EXTT4=
EXTT5=
EXTT6=
EXTT7=
EXTT8=
EXTT9=
EXTT10=
PLAYORDER=
